<mxfile host="app.diagrams.net" modified="2023-11-18T14:45:09.943Z" agent="Mozilla/5.0 (X11; Linux x86_64) AppleWebKit/537.36 (KHTML, like Gecko) Chrome/119.0.0.0 Safari/537.36" etag="IUk83GuTog9zF6d9aJBV" version="22.1.3" type="github">
  <diagram name="Page-1" id="gG-CcKQj_O5Gds7CuANu">
    <mxGraphModel dx="1050" dy="629" grid="1" gridSize="10" guides="1" tooltips="1" connect="1" arrows="1" fold="1" page="1" pageScale="1" pageWidth="850" pageHeight="1100" math="0" shadow="0">
      <root>
        <mxCell id="0" />
        <mxCell id="1" parent="0" />
        <mxCell id="3vcHzLo65YRTK80i1mjy-1" value="Location" style="ellipse;whiteSpace=wrap;html=1;fillColor=#66B2FF;" vertex="1" parent="1">
          <mxGeometry x="190" y="210" width="80" height="50" as="geometry" />
        </mxCell>
        <mxCell id="3vcHzLo65YRTK80i1mjy-2" value="Bonn&lt;br&gt;Sankt Augustin" style="text;html=1;align=right;verticalAlign=middle;resizable=0;points=[];autosize=1;strokeColor=none;fillColor=none;" vertex="1" parent="1">
          <mxGeometry x="80" y="210" width="100" height="40" as="geometry" />
        </mxCell>
        <mxCell id="3vcHzLo65YRTK80i1mjy-3" value="Residence _type" style="ellipse;whiteSpace=wrap;html=1;fillColor=#66B2FF;" vertex="1" parent="1">
          <mxGeometry x="480" y="210" width="80" height="50" as="geometry" />
        </mxCell>
        <mxCell id="3vcHzLo65YRTK80i1mjy-4" value="2 room apartment&lt;br&gt;2 - persons apartment&lt;br&gt;double room&lt;br&gt;single room&lt;br&gt;single room in&amp;nbsp; shared apartments&lt;br&gt;rooms for disabled people" style="text;html=1;align=left;verticalAlign=middle;resizable=0;points=[];autosize=1;strokeColor=none;fillColor=none;" vertex="1" parent="1">
          <mxGeometry x="570" y="210" width="200" height="100" as="geometry" />
        </mxCell>
        <mxCell id="3vcHzLo65YRTK80i1mjy-13" style="edgeStyle=orthogonalEdgeStyle;rounded=0;orthogonalLoop=1;jettySize=auto;html=1;exitX=0.5;exitY=1;exitDx=0;exitDy=0;entryX=0.5;entryY=0;entryDx=0;entryDy=0;" edge="1" parent="1" source="3vcHzLo65YRTK80i1mjy-5" target="3vcHzLo65YRTK80i1mjy-12">
          <mxGeometry relative="1" as="geometry" />
        </mxCell>
        <mxCell id="3vcHzLo65YRTK80i1mjy-5" value="Primary_dorm&lt;br&gt;_list" style="ellipse;whiteSpace=wrap;html=1;fillColor=#3399FF;" vertex="1" parent="1">
          <mxGeometry x="330" y="360" width="90" height="60" as="geometry" />
        </mxCell>
        <mxCell id="3vcHzLo65YRTK80i1mjy-6" value="" style="endArrow=classic;html=1;rounded=0;exitX=0.5;exitY=1;exitDx=0;exitDy=0;" edge="1" parent="1" source="3vcHzLo65YRTK80i1mjy-1" target="3vcHzLo65YRTK80i1mjy-5">
          <mxGeometry width="50" height="50" relative="1" as="geometry">
            <mxPoint x="400" y="450" as="sourcePoint" />
            <mxPoint x="450" y="400" as="targetPoint" />
          </mxGeometry>
        </mxCell>
        <mxCell id="3vcHzLo65YRTK80i1mjy-7" value="" style="endArrow=classic;html=1;rounded=0;exitX=0.5;exitY=1;exitDx=0;exitDy=0;" edge="1" parent="1" source="3vcHzLo65YRTK80i1mjy-3" target="3vcHzLo65YRTK80i1mjy-5">
          <mxGeometry width="50" height="50" relative="1" as="geometry">
            <mxPoint x="180" y="260" as="sourcePoint" />
            <mxPoint x="230" y="370" as="targetPoint" />
          </mxGeometry>
        </mxCell>
        <mxCell id="3vcHzLo65YRTK80i1mjy-8" value="House_equipment" style="ellipse;whiteSpace=wrap;html=1;fillColor=#66B2FF;" vertex="1" parent="1">
          <mxGeometry x="470" y="360" width="110" height="60" as="geometry" />
        </mxCell>
        <mxCell id="3vcHzLo65YRTK80i1mjy-9" value="&lt;div style=&quot;text-align: left;&quot;&gt;&lt;span style=&quot;background-color: initial;&quot;&gt;Bicycle/car parking&lt;/span&gt;&lt;/div&gt;&lt;div style=&quot;text-align: left;&quot;&gt;&lt;span style=&quot;background-color: initial;&quot;&gt;Laundry facilities&lt;/span&gt;&lt;/div&gt;" style="text;html=1;align=center;verticalAlign=middle;resizable=0;points=[];autosize=1;strokeColor=none;fillColor=none;" vertex="1" parent="1">
          <mxGeometry x="580" y="360" width="120" height="40" as="geometry" />
        </mxCell>
        <mxCell id="3vcHzLo65YRTK80i1mjy-10" value="Places _around" style="ellipse;whiteSpace=wrap;html=1;fillColor=#66B2FF;" vertex="1" parent="1">
          <mxGeometry x="170" y="360" width="90" height="60" as="geometry" />
        </mxCell>
        <mxCell id="3vcHzLo65YRTK80i1mjy-11" value="&lt;div style=&quot;text-align: right;&quot;&gt;&lt;span style=&quot;background-color: initial;&quot;&gt;Near by :&lt;/span&gt;&lt;/div&gt;&lt;div style=&quot;text-align: right;&quot;&gt;&lt;span style=&quot;background-color: initial;&quot;&gt;super market&lt;/span&gt;&lt;/div&gt;&lt;div style=&quot;text-align: right;&quot;&gt;&lt;span style=&quot;background-color: initial;&quot;&gt;university&lt;/span&gt;&lt;/div&gt;&lt;div style=&quot;text-align: right;&quot;&gt;&lt;span style=&quot;background-color: initial;&quot;&gt;park&lt;/span&gt;&lt;/div&gt;" style="text;html=1;align=center;verticalAlign=middle;resizable=0;points=[];autosize=1;strokeColor=none;fillColor=none;" vertex="1" parent="1">
          <mxGeometry x="80" y="360" width="90" height="70" as="geometry" />
        </mxCell>
        <mxCell id="3vcHzLo65YRTK80i1mjy-12" value="Dorm_list_with&lt;br&gt;_amenities" style="ellipse;whiteSpace=wrap;html=1;fillColor=#66B2FF;" vertex="1" parent="1">
          <mxGeometry x="325" y="530" width="100" height="80" as="geometry" />
        </mxCell>
        <mxCell id="3vcHzLo65YRTK80i1mjy-16" value="" style="endArrow=classic;html=1;rounded=0;exitX=0.5;exitY=1;exitDx=0;exitDy=0;entryX=0;entryY=0;entryDx=0;entryDy=0;" edge="1" parent="1" source="3vcHzLo65YRTK80i1mjy-10" target="3vcHzLo65YRTK80i1mjy-12">
          <mxGeometry width="50" height="50" relative="1" as="geometry">
            <mxPoint x="400" y="450" as="sourcePoint" />
            <mxPoint x="450" y="400" as="targetPoint" />
          </mxGeometry>
        </mxCell>
        <mxCell id="3vcHzLo65YRTK80i1mjy-17" value="" style="endArrow=classic;html=1;rounded=0;exitX=0.5;exitY=1;exitDx=0;exitDy=0;entryX=1;entryY=0;entryDx=0;entryDy=0;" edge="1" parent="1" source="3vcHzLo65YRTK80i1mjy-8" target="3vcHzLo65YRTK80i1mjy-12">
          <mxGeometry width="50" height="50" relative="1" as="geometry">
            <mxPoint x="250" y="400" as="sourcePoint" />
            <mxPoint x="350" y="530" as="targetPoint" />
            <Array as="points" />
          </mxGeometry>
        </mxCell>
        <mxCell id="3vcHzLo65YRTK80i1mjy-18" value="Final_list_of_dorm _suggestions" style="ellipse;whiteSpace=wrap;html=1;fillColor=#66B2FF;" vertex="1" parent="1">
          <mxGeometry x="315" y="660" width="120" height="80" as="geometry" />
        </mxCell>
        <mxCell id="3vcHzLo65YRTK80i1mjy-19" value="Room_size" style="ellipse;whiteSpace=wrap;html=1;fillColor=#66B2FF;" vertex="1" parent="1">
          <mxGeometry x="110" y="530" width="120" height="80" as="geometry" />
        </mxCell>
        <mxCell id="3vcHzLo65YRTK80i1mjy-20" value="Price_range" style="ellipse;whiteSpace=wrap;html=1;fillColor=#66B2FF;" vertex="1" parent="1">
          <mxGeometry x="530" y="530" width="120" height="80" as="geometry" />
        </mxCell>
        <mxCell id="3vcHzLo65YRTK80i1mjy-21" value="" style="endArrow=classic;html=1;rounded=0;exitX=0.5;exitY=1;exitDx=0;exitDy=0;entryX=0;entryY=0.5;entryDx=0;entryDy=0;" edge="1" parent="1" source="3vcHzLo65YRTK80i1mjy-19" target="3vcHzLo65YRTK80i1mjy-18">
          <mxGeometry width="50" height="50" relative="1" as="geometry">
            <mxPoint x="220" y="660" as="sourcePoint" />
            <mxPoint x="270" y="610" as="targetPoint" />
          </mxGeometry>
        </mxCell>
        <mxCell id="3vcHzLo65YRTK80i1mjy-22" value="" style="endArrow=classic;html=1;rounded=0;exitX=0.5;exitY=1;exitDx=0;exitDy=0;entryX=1;entryY=0.429;entryDx=0;entryDy=0;entryPerimeter=0;" edge="1" parent="1" source="3vcHzLo65YRTK80i1mjy-20" target="3vcHzLo65YRTK80i1mjy-18">
          <mxGeometry width="50" height="50" relative="1" as="geometry">
            <mxPoint x="200" y="640" as="sourcePoint" />
            <mxPoint x="330" y="685" as="targetPoint" />
          </mxGeometry>
        </mxCell>
        <mxCell id="3vcHzLo65YRTK80i1mjy-23" value="" style="endArrow=classic;html=1;rounded=0;exitX=0.5;exitY=1;exitDx=0;exitDy=0;entryX=0.5;entryY=0;entryDx=0;entryDy=0;" edge="1" parent="1" source="3vcHzLo65YRTK80i1mjy-12" target="3vcHzLo65YRTK80i1mjy-18">
          <mxGeometry width="50" height="50" relative="1" as="geometry">
            <mxPoint x="400" y="450" as="sourcePoint" />
            <mxPoint x="450" y="400" as="targetPoint" />
          </mxGeometry>
        </mxCell>
        <mxCell id="3vcHzLo65YRTK80i1mjy-24" value="10-20 m2&lt;br&gt;20-30 m2" style="text;html=1;strokeColor=none;fillColor=none;align=right;verticalAlign=middle;whiteSpace=wrap;rounded=0;" vertex="1" parent="1">
          <mxGeometry x="20" y="530" width="80" height="30" as="geometry" />
        </mxCell>
        <mxCell id="3vcHzLo65YRTK80i1mjy-26" value="300 -400 euros&lt;br&gt;400-500 euros&lt;br&gt;500-600 euros" style="text;html=1;align=left;verticalAlign=middle;resizable=0;points=[];autosize=1;strokeColor=none;fillColor=none;" vertex="1" parent="1">
          <mxGeometry x="660" y="530" width="100" height="60" as="geometry" />
        </mxCell>
      </root>
    </mxGraphModel>
  </diagram>
</mxfile>
